<svg width="15" height="17" viewBox="0 0 15 17" fill="none" xmlns="http://www.w3.org/2000/svg">
<path d="M7.2002 0.599609C9.05671 0.599609 10.8372 1.33711 12.1499 2.64986C13.4627 3.96262 14.2002 5.74309 14.2002 7.59961C14.2002 9.9905 12.8966 11.9474 11.5231 13.3513C10.8368 14.0451 10.088 14.6741 9.2862 15.2304L8.95486 15.4559L8.79931 15.5594L8.50608 15.7461L8.24475 15.9055L7.9212 16.0937C7.70158 16.2191 7.45307 16.285 7.2002 16.285C6.94732 16.285 6.69881 16.2191 6.4792 16.0937L6.15564 15.9055L5.7512 15.6566L5.60186 15.5594L5.28297 15.3471C4.41795 14.7618 3.61223 14.0934 2.87731 13.3513C1.50375 11.9466 0.200195 9.9905 0.200195 7.59961C0.200195 5.74309 0.937693 3.96262 2.25045 2.64986C3.5632 1.33711 5.34368 0.599609 7.2002 0.599609ZM7.2002 5.26628C6.89378 5.26628 6.59036 5.32663 6.30727 5.44389C6.02417 5.56115 5.76695 5.73302 5.55028 5.94969C5.33361 6.16636 5.16174 6.42359 5.04448 6.70668C4.92722 6.98977 4.86686 7.29319 4.86686 7.59961C4.86686 7.90603 4.92722 8.20944 5.04448 8.49254C5.16174 8.77563 5.33361 9.03286 5.55028 9.24953C5.76695 9.4662 6.02417 9.63807 6.30727 9.75533C6.59036 9.87259 6.89378 9.93294 7.2002 9.93294C7.81903 9.93294 8.41253 9.68711 8.85011 9.24953C9.2877 8.81194 9.53353 8.21845 9.53353 7.59961C9.53353 6.98077 9.2877 6.38728 8.85011 5.94969C8.41253 5.51211 7.81903 5.26628 7.2002 5.26628Z" fill="#202125"/>
</svg>
