<svg width="16" height="9" viewBox="0 0 16 9" fill="none" xmlns="http://www.w3.org/2000/svg">
<path d="M14.9167 1.5H1.41675C1.21784 1.5 1.02707 1.42098 0.886418 1.28033C0.745766 1.13968 0.666748 0.948912 0.666748 0.75C0.666748 0.551088 0.745766 0.360322 0.886418 0.21967C1.02707 0.0790175 1.21784 0 1.41675 0H14.9167C15.1157 0 15.3064 0.0790175 15.4471 0.21967C15.5877 0.360322 15.6667 0.551088 15.6667 0.75C15.6667 0.948912 15.5877 1.13968 15.4471 1.28033C15.3064 1.42098 15.1157 1.5 14.9167 1.5ZM12.4167 5H3.91675C3.71784 5 3.52707 4.92098 3.38642 4.78033C3.24577 4.63968 3.16675 4.44891 3.16675 4.25C3.16675 4.05109 3.24577 3.86032 3.38642 3.71967C3.52707 3.57902 3.71784 3.5 3.91675 3.5H12.4167C12.6157 3.5 12.8064 3.57902 12.9471 3.71967C13.0877 3.86032 13.1667 4.05109 13.1667 4.25C13.1667 4.44891 13.0877 4.63968 12.9471 4.78033C12.8064 4.92098 12.6157 5 12.4167 5ZM9.41675 8.5H6.91675C6.71784 8.5 6.52707 8.42098 6.38642 8.28033C6.24577 8.13968 6.16675 7.94891 6.16675 7.75C6.16675 7.55109 6.24577 7.36032 6.38642 7.21967C6.52707 7.07902 6.71784 7 6.91675 7H9.41675C9.61566 7 9.80643 7.07902 9.94708 7.21967C10.0877 7.36032 10.1667 7.55109 10.1667 7.75C10.1667 7.94891 10.0877 8.13968 9.94708 8.28033C9.80643 8.42098 9.61566 8.5 9.41675 8.5Z" fill="white"/>
</svg>
