<svg width="8" height="14" viewBox="0 0 8 14" fill="none" xmlns="http://www.w3.org/2000/svg">
<path fill-rule="evenodd" clip-rule="evenodd" d="M7.7071 6.293C7.89457 6.48053 7.99989 6.73483 7.99989 7C7.99989 7.26516 7.89457 7.51947 7.7071 7.707L2.0501 13.364C1.95785 13.4595 1.84751 13.5357 1.7255 13.5881C1.6035 13.6405 1.47228 13.6681 1.3395 13.6692C1.20672 13.6704 1.07504 13.6451 0.952145 13.5948C0.829249 13.5445 0.717596 13.4703 0.623704 13.3764C0.529811 13.2825 0.455558 13.1708 0.405277 13.048C0.354996 12.9251 0.329694 12.7934 0.330848 12.6606C0.332002 12.5278 0.359588 12.3966 0.411997 12.2746C0.464406 12.1526 0.540588 12.0422 0.636098 11.95L5.5861 7L0.636098 2.05C0.45394 1.8614 0.353146 1.60879 0.355424 1.3466C0.357703 1.0844 0.462872 0.833587 0.64828 0.648179C0.833688 0.462771 1.0845 0.357602 1.3467 0.355323C1.60889 0.353045 1.8615 0.453839 2.0501 0.635997L7.7071 6.293Z" fill="#202125"/>
</svg>
