<svg width="20" height="16" viewBox="0 0 20 16" fill="none" xmlns="http://www.w3.org/2000/svg">
<path d="M8.80969 0.335949C8.91621 0.442093 9.00072 0.568217 9.05838 0.707091C9.11605 0.845966 9.14573 0.994859 9.14573 1.14523C9.14573 1.2956 9.11605 1.44449 9.05838 1.58337C9.00072 1.72224 8.91621 1.84837 8.80969 1.95451L3.90735 6.85685L17.9032 6.85685C18.2062 6.85685 18.4968 6.97723 18.711 7.19149C18.9253 7.40575 19.0457 7.69635 19.0457 7.99937C19.0457 8.30238 18.9253 8.59299 18.711 8.80725C18.4968 9.02151 18.2062 9.14188 17.9032 9.14188L3.90735 9.14188L8.80969 14.0461C9.02433 14.2608 9.14491 14.5519 9.14491 14.8554C9.14491 15.159 9.02433 15.4501 8.80969 15.6647C8.59506 15.8793 8.30395 15.9999 8.00041 15.9999C7.69687 15.9999 7.40577 15.8793 7.19113 15.6647L0.336038 8.8096C0.229526 8.70346 0.145014 8.57733 0.0873484 8.43846C0.0296834 8.29958 -3.431e-07 8.15069 -3.49673e-07 8.00032C-3.56246e-07 7.84995 0.0296833 7.70106 0.0873484 7.56218C0.145013 7.42331 0.229526 7.29718 0.336038 7.19104L7.19113 0.335949C7.29727 0.229436 7.4234 0.144924 7.56227 0.087258C7.70115 0.0295931 7.85004 -9.18959e-05 8.00041 -9.19024e-05C8.15078 -9.1909e-05 8.29967 0.0295931 8.43855 0.087258C8.57742 0.144924 8.70355 0.229436 8.80969 0.335949Z" fill="#202125"/>
</svg>
