<svg width="18" height="18" viewBox="0 0 18 18" fill="none" xmlns="http://www.w3.org/2000/svg">
<path fill-rule="evenodd" clip-rule="evenodd" d="M7.78084 0.80307C8.1173 0.772457 8.45648 0.810358 8.77788 0.914485C9.09929 1.01861 9.39625 1.1868 9.65084 1.4089L9.77584 1.52557L16.2942 8.04474C16.7428 8.49342 17.004 9.09589 17.0249 9.73002C17.0458 10.3642 16.8248 10.9825 16.4067 11.4597L16.2942 11.5797L11.58 16.2939C11.1313 16.7425 10.5289 17.0037 9.89473 17.0246C9.2606 17.0455 8.64224 16.8245 8.16501 16.4064L8.04501 16.2939L1.52501 9.77474C1.28624 9.53598 1.09831 9.25133 0.972558 8.93796C0.846808 8.62458 0.785843 8.28898 0.793341 7.9514L0.802508 7.78057L1.19584 3.45974C1.24634 2.90289 1.48205 2.37904 1.8653 1.97192C2.24855 1.5648 2.75722 1.29791 3.31001 1.2139L3.45917 1.1964L7.78084 0.80307ZM5.68668 5.68724C5.53188 5.84203 5.40909 6.0258 5.32531 6.22805C5.24154 6.4303 5.19842 6.64707 5.19842 6.86599C5.19842 7.0849 5.24154 7.30167 5.32531 7.50392C5.40909 7.70617 5.53188 7.88994 5.68668 8.04474C5.84147 8.19953 6.02524 8.32232 6.22749 8.4061C6.42974 8.48987 6.64651 8.53299 6.86543 8.53299C7.08434 8.53299 7.30111 8.48987 7.50336 8.4061C7.70561 8.32232 7.88938 8.19953 8.04417 8.04474C8.3568 7.73211 8.53243 7.3081 8.53243 6.86599C8.53243 6.42387 8.3568 5.99986 8.04417 5.68724C7.73155 5.37461 7.30754 5.19898 6.86543 5.19898C6.42331 5.19898 5.9993 5.37461 5.68668 5.68724Z" fill="#5A5A5A"/>
</svg>
