<svg width="15" height="16" viewBox="0 0 15 16" fill="none" xmlns="http://www.w3.org/2000/svg">
<path d="M13.8627 13.7085L11.2076 11.0534C12.0651 9.95905 12.5293 8.60787 12.5254 7.21755C12.5254 5.9789 12.1581 4.76808 11.4699 3.73819C10.7818 2.7083 9.80366 1.90559 8.6593 1.43159C7.51495 0.957578 6.25573 0.833556 5.04089 1.0752C3.82605 1.31685 2.71015 1.91331 1.8343 2.78916C0.958447 3.66501 0.361985 4.78092 0.120338 5.99576C-0.121308 7.2106 0.00271353 8.46981 0.476721 9.61417C0.950728 10.7585 1.75343 11.7366 2.78332 12.4248C3.81322 13.1129 5.02404 13.4802 6.26268 13.4802C7.65301 13.4841 9.00418 13.02 10.0986 12.1625L12.7537 14.8176C12.9014 14.9634 13.1006 15.0451 13.3082 15.0451C13.5158 15.0451 13.715 14.9634 13.8627 14.8176C13.9357 14.7448 13.9936 14.6584 14.0331 14.5633C14.0726 14.4681 14.0929 14.3661 14.0929 14.2631C14.0929 14.16 14.0726 14.058 14.0331 13.9629C13.9936 13.8677 13.9357 13.7813 13.8627 13.7085ZM1.56567 7.21755C1.56567 6.28856 1.84115 5.38045 2.35726 4.60803C2.87337 3.83561 3.60695 3.23358 4.46521 2.87808C5.32348 2.52257 6.26789 2.42955 7.17902 2.61079C8.09015 2.79202 8.92708 3.23937 9.58397 3.89626C10.2409 4.55315 10.6882 5.39007 10.8694 6.3012C11.0507 7.21233 10.9577 8.15675 10.6022 9.01501C10.2466 9.87328 9.64462 10.6069 8.8722 11.123C8.09978 11.6391 7.19166 11.9146 6.26268 11.9146C5.01749 11.9128 3.82379 11.4174 2.9433 10.5369C2.06281 9.65644 1.5674 8.46274 1.56567 7.21755Z" fill="#797979"/>
</svg>
