<svg width="15" height="16" viewBox="0 0 15 16" fill="none" xmlns="http://www.w3.org/2000/svg">
<path fill-rule="evenodd" clip-rule="evenodd" d="M4.42122 1.5766C4.63845 1.11887 5.10704 0.800781 5.64856 0.800781H8.75183C9.29335 0.800781 9.76117 1.11887 9.97917 1.5766C10.5091 1.58125 10.9226 1.6053 11.2919 1.74961C11.7327 1.92205 12.1161 2.21511 12.3982 2.59525C12.6829 2.9785 12.8171 3.46959 13.0002 4.14533L13.5759 6.25711L13.7931 6.90957L13.8117 6.93284C14.5107 7.82814 14.1779 9.15944 13.5122 11.8213C13.0887 13.5149 12.8776 14.3613 12.2461 14.8547C11.6146 15.3474 10.7418 15.3474 8.99621 15.3474H5.40418C3.65859 15.3474 2.78579 15.3474 2.15428 14.8547C1.52276 14.3613 1.31096 13.5149 0.888142 11.8213C0.222491 9.15944 -0.110335 7.82814 0.588676 6.93284L0.607296 6.90957L0.824525 6.25711L1.40018 4.14533C1.58405 3.46959 1.71827 2.97773 2.00222 2.59447C2.2844 2.21462 2.66779 1.92184 3.10853 1.74961C3.47782 1.6053 3.89056 1.58048 4.42122 1.5766ZM4.42277 2.74265C3.90918 2.74808 3.70281 2.76748 3.53213 2.8342C3.2947 2.92705 3.08821 3.08487 2.9363 3.2896C2.79976 3.47347 2.71907 3.73027 2.49408 4.55807L2.05187 6.17875C2.8432 6.03755 3.92469 6.03755 5.4034 6.03755H8.99621C10.4757 6.03755 11.5564 6.03755 12.3477 6.1772L11.9063 4.55651C11.6813 3.72872 11.6006 3.47192 11.4641 3.28805C11.3122 3.08332 11.1057 2.9255 10.8683 2.83265C10.6976 2.76593 10.4912 2.74653 9.97762 2.7411C9.86747 2.97295 9.69384 3.16883 9.47688 3.306C9.25992 3.44318 9.00852 3.51605 8.75183 3.51614H5.64856C5.39195 3.51612 5.14061 3.44337 4.92366 3.30633C4.70671 3.1693 4.53304 2.97436 4.42277 2.74265Z" fill="#202125"/>
</svg>
